<svg width="262" height="262" viewBox="0 0 262 262" fill="none" xmlns="http://www.w3.org/2000/svg">
<mask id="mask0" mask-type="alpha" maskUnits="userSpaceOnUse" x="0" y="0" width="262" height="262">
<circle cx="131" cy="131" r="131" fill="#F0F0F0"/>
</mask>
<g mask="url(#mask0)">
<circle cx="131" cy="131" r="131" fill="#E67B1C"/>
<path d="M314 54.4751C314 118.25 266.877 172 201.155 172C135.433 172 76 118.25 76 54.4751C76 -9.30005 129.278 -61 195 -61C260.722 -61 314 -9.30005 314 54.4751Z" fill="#F0251D" fill-opacity="0.2"/>
<path fill-rule="evenodd" clip-rule="evenodd" d="M155.865 41.9514C162.407 33.2104 166.079 23.3853 166.079 13C166.079 -23.4508 120.842 -53 65.0395 -53C9.23694 -53 -36 -23.4508 -36 13C-36 49.4508 9.23694 79 65.0395 79C89.6514 79 112.208 73.2519 129.735 63.6987L167.248 75.185L155.865 41.9514Z" fill="#F0F0F0" fill-opacity="0.2"/>
<path fill-rule="evenodd" clip-rule="evenodd" d="M250.731 104.008V100.781H258.463V165.191H266.191V100.781H250.731V100.137V98.2049H250.677C249.675 80.2504 234.799 66 216.594 66C198.389 66 183.512 80.2504 182.51 98.2049H182.457V100.137V100.781H167V165.191H174.73V100.781H182.457V104.008H193.42C195.212 104.008 196.665 105.46 196.665 107.252C196.665 109.044 195.212 110.497 193.42 110.497H182.457V114.205H193.42C195.212 114.205 196.665 115.658 196.665 117.45C196.665 119.242 195.212 120.694 193.42 120.694H182.457V124.402H193.42C195.212 124.402 196.665 125.855 196.665 127.647C196.665 129.439 195.212 130.891 193.42 130.891H182.457V134.599H193.42C195.212 134.599 196.665 136.052 196.665 137.844C196.665 139.636 195.212 141.089 193.42 141.089H182.457V163.258V165.191H182.51C183.512 183.145 198.389 197.396 216.594 197.396C234.799 197.396 249.675 183.145 250.677 165.191H250.731V163.258V141.089H239.771C237.979 141.089 236.526 139.636 236.526 137.844C236.526 136.052 237.979 134.599 239.771 134.599H250.731V130.891H239.771C237.979 130.891 236.526 129.439 236.526 127.647C236.526 125.855 237.979 124.402 239.771 124.402H250.731V120.694H239.771C237.979 120.694 236.526 119.242 236.526 117.45C236.526 115.658 237.979 114.205 239.771 114.205H250.731V110.497H239.771C237.979 110.497 236.526 109.044 236.526 107.252C236.526 105.46 237.979 104.008 239.771 104.008H250.731ZM167 167.123C167 166.476 167.012 165.832 167.037 165.191H174.774C174.745 165.832 174.73 166.476 174.73 167.124C174.73 190.246 193.474 208.99 216.596 208.99C239.718 208.99 258.463 190.246 258.463 167.124C258.463 166.476 258.448 165.832 258.419 165.191H266.154C266.179 165.832 266.191 166.476 266.191 167.123C266.191 193.019 246.344 214.279 221.031 216.523V239.469H249.469V248H184.062V239.469H212.5V216.552C187.025 214.469 167 193.135 167 167.123Z" fill="#F0F0F0" fill-opacity="0.2"/>
<path d="M210.901 126.219C214.125 128.163 214.125 132.837 210.901 134.782L91.3324 206.9C88 208.91 83.75 206.51 83.75 202.619L83.75 58.3815C83.75 54.4898 88 52.09 91.3324 54.1L210.901 126.219Z" fill="#333333"/>
</g>
</svg>
