<svg width="262" height="262" viewBox="0 0 262 262" fill="none" xmlns="http://www.w3.org/2000/svg">
<mask id="mask0" mask-type="alpha" maskUnits="userSpaceOnUse" x="0" y="0" width="262" height="262">
<circle cx="131" cy="131" r="131" fill="#F0F0F0"/>
</mask>
<g mask="url(#mask0)">
<circle cx="131" cy="131" r="131" fill="#E67B1C"/>
<path d="M314 54.4751C314 118.25 266.877 172 201.155 172C135.433 172 76 118.25 76 54.4751C76 -9.30005 129.278 -61 195 -61C260.722 -61 314 -9.30005 314 54.4751Z" fill="#F0251D" fill-opacity="0.2"/>
<path fill-rule="evenodd" clip-rule="evenodd" d="M174 43H86V269H174V43ZM130.305 108.972H135.977V74.73H135.25L121.938 79.6285V84.4332L130.305 81.5738V108.972Z" fill="#F0F0F0" fill-opacity="0.15"/>
<path fill-rule="evenodd" clip-rule="evenodd" d="M86 86H-2V269H86V86ZM29.5547 140H52.5V135.453H36.6562L45 126.523C47.1875 124.148 48.7578 122.031 49.7109 120.172C50.6797 118.297 51.1641 116.508 51.1641 114.805C51.1641 111.867 50.2031 109.57 48.2812 107.914C46.375 106.242 43.7656 105.406 40.4531 105.406C38.1562 105.406 36.125 105.867 34.3594 106.789C32.6094 107.711 31.2578 109.008 30.3047 110.68C29.3672 112.336 28.8984 114.203 28.8984 116.281H34.5938C34.5938 114.328 35.1016 112.789 36.1172 111.664C37.1328 110.539 38.5625 109.977 40.4062 109.977C41.9531 109.977 43.1797 110.477 44.0859 111.477C45.0078 112.477 45.4688 113.789 45.4688 115.414C45.4688 116.648 45.1172 117.883 44.4141 119.117C43.7266 120.336 42.5625 121.859 40.9219 123.688L29.5547 136.086V140Z" fill="#F0F0F0" fill-opacity="0.15"/>
<path fill-rule="evenodd" clip-rule="evenodd" d="M262 122H174V338H262V122ZM217.609 158.336H214.141V162.836H217.492C219.586 162.836 221.164 163.32 222.227 164.289C223.289 165.258 223.82 166.641 223.82 168.438C223.82 170.219 223.312 171.578 222.297 172.516C221.281 173.453 219.891 173.922 218.125 173.922C216.422 173.922 215.062 173.453 214.047 172.516C213.047 171.578 212.547 170.359 212.547 168.859H206.852C206.852 171.766 207.898 174.094 209.992 175.844C212.086 177.594 214.773 178.469 218.055 178.469C221.477 178.469 224.234 177.562 226.328 175.75C228.438 173.938 229.492 171.5 229.492 168.438C229.492 166.531 229 164.891 228.016 163.516C227.047 162.141 225.625 161.133 223.75 160.492C225.297 159.805 226.555 158.789 227.523 157.445C228.508 156.086 229 154.641 229 153.109C229 150.062 228.023 147.688 226.07 145.984C224.133 144.266 221.461 143.406 218.055 143.406C215.992 143.406 214.125 143.812 212.453 144.625C210.797 145.422 209.5 146.539 208.562 147.977C207.641 149.414 207.18 151.008 207.18 152.758H212.875C212.875 151.336 213.367 150.188 214.352 149.312C215.336 148.422 216.594 147.977 218.125 147.977C219.875 147.977 221.172 148.43 222.016 149.336C222.875 150.227 223.305 151.484 223.305 153.109C223.305 154.797 222.789 156.086 221.758 156.977C220.742 157.867 219.359 158.32 217.609 158.336Z" fill="#F0F0F0" fill-opacity="0.15"/>
<path fill-rule="evenodd" clip-rule="evenodd" d="M40 13.7749L69.5403 0L129.825 129.282L121.048 148.104C115.484 149.36 110.311 151.647 105.739 154.753L40 13.7749Z" fill="#333333"/>
<path fill-rule="evenodd" clip-rule="evenodd" d="M222.794 13.7749L193.254 0L124.489 147.468C126.615 147.16 128.789 147 131 147C140.625 147 149.545 150.022 156.861 155.169L222.794 13.7749Z" fill="#333333"/>
<circle cx="131" cy="192" r="39" fill="#333333"/>
</g>
</svg>
