<svg width="276" height="277" viewBox="0 0 276 277" fill="none" xmlns="http://www.w3.org/2000/svg">
<mask id="mask0" mask-type="alpha" maskUnits="userSpaceOnUse" x="0" y="0" width="276" height="277">
<ellipse cx="137.973" cy="138.5" rx="137.973" ry="138.5" fill="#F0F0F0"/>
</mask>
<g mask="url(#mask0)">
<ellipse cx="139.027" cy="138.5" rx="137.973" ry="138.5" fill="#E67B1C"/>
<path d="M331.768 57.3749C331.768 124.545 281.928 181.156 212.417 181.156C142.906 181.156 80.0456 124.545 80.0456 57.3749C80.0456 -9.79509 136.396 -64.2471 205.907 -64.2471C275.418 -64.2471 331.768 -9.79509 331.768 57.3749Z" fill="#D94625" fill-opacity="0.2"/>
<path fill-rule="evenodd" clip-rule="evenodd" d="M110.264 195.313C152.838 195.313 187.351 144.198 187.351 81.1455L110.264 81.1454L33.1768 81.1455C33.1768 144.198 67.69 195.313 110.264 195.313ZM104.897 182.627C136.424 182.627 161.981 142.872 161.981 93.8308L104.897 93.8307L47.8136 93.8308C47.8136 142.872 73.3708 182.627 104.897 182.627Z" fill="#333333"/>
<path fill-rule="evenodd" clip-rule="evenodd" d="M168.811 195.313C126.237 195.313 91.7238 144.198 91.7238 81.1455L168.811 81.1454L245.898 81.1455C245.898 144.198 211.385 195.313 168.811 195.313ZM174.178 182.627C142.651 182.627 117.094 142.872 117.094 93.8308L174.178 93.8307L231.262 93.8308C231.262 142.872 205.704 182.627 174.178 182.627Z" fill="#333333"/>
<path d="M219.072 68.4602C219.072 151.059 183.706 218.019 140.08 218.019C96.4535 218.019 61.0874 151.059 61.0874 68.4602C105.46 68.4602 96.4535 68.4601 140.08 68.4601C183.706 68.4601 157.146 68.4601 219.072 68.4602Z" fill="#333333"/>
<rect x="114.802" y="205.38" width="46.3422" height="61.0874" fill="#333333"/>
<path d="M137.447 212.753L182.597 283.056H92.2965L137.447 212.753Z" fill="#333333"/>
</g>
</svg>
